<?xml version="1.0" standalone="no"?>
<!DOCTYPE svg PUBLIC "-//W3C//DTD SVG 20010904//EN"
 "http://www.w3.org/TR/2001/REC-SVG-20010904/DTD/svg10.dtd">
<svg version="1.0" xmlns="http://www.w3.org/2000/svg"
 width="512.000000pt" height="512.000000pt" viewBox="0 0 512.000000 512.000000"
 preserveAspectRatio="xMidYMid meet">
<metadata>
Created by potrace 1.16, written by Peter Selinger 2001-2019
</metadata>
<g transform="translate(0.000000,512.000000) scale(0.100000,-0.100000)"
fill="#000000" stroke="none">
<path d="M2515 4625 c-22 -7 -101 -32 -175 -56 -176 -54 -332 -110 -326 -116
3 -3 128 33 279 81 l275 86 108 -47 c60 -26 267 -111 459 -189 l350 -143 3
-45 c2 -25 1 -46 -1 -46 -12 0 -523 199 -748 290 -80 33 -152 60 -161 60 -18
0 -447 -132 -488 -150 -45 -19 8 -4 250 70 196 61 238 71 260 62 159 -66 600
-243 725 -290 159 -60 160 -61 165 -94 6 -38 -17 -28 380 -175 374 -139 502
-184 496 -174 -7 10 12 3 -421 164 -198 74 -377 142 -397 150 l-38 16 0 68 c0
37 -3 77 -6 88 -4 16 -59 43 -247 119 -133 55 -342 141 -465 193 -122 51 -226
93 -230 92 -4 0 -25 -7 -47 -14z"/>
<path d="M2490 4349 c-30 -10 -41 -17 -25 -14 124 20 114 22 267 -45 78 -35
240 -102 358 -151 196 -80 215 -90 218 -113 2 -18 -1 -25 -10 -21 -7 2 -62 20
-123 39 -60 19 -234 77 -385 130 -151 53 -283 96 -295 95 -26 0 115 -56 378
-149 l207 -73 0 -344 c0 -188 -4 -343 -8 -343 -5 0 -31 7 -58 15 -104 31 -517
125 -547 125 -58 0 -587 -103 -1207 -235 -113 -24 -151 -35 -123 -35 12 0 414
77 673 130 395 80 643 122 685 115 57 -8 594 -141 601 -148 4 -3 4 -13 1 -21
-5 -13 -13 -13 -64 -1 -32 8 -170 37 -307 66 l-248 51 -137 -22 c-75 -12 -271
-41 -436 -65 -165 -24 -403 -60 -530 -80 -126 -20 -237 -34 -247 -32 -10 3
-37 1 -60 -5 -55 -12 -379 -68 -395 -68 -10 0 -13 46 -13 199 l0 198 488 121
c541 135 753 185 1107 262 294 63 276 58 245 75 -24 13 -25 18 -30 137 l-6
123 -2 -122 c-1 -68 -4 -123 -6 -123 -33 0 -1595 -366 -1734 -406 l-23 -6 3
133 3 133 95 29 c126 38 212 69 206 74 -3 3 -20 0 -38 -7 -53 -19 -232 -70
-245 -70 -9 0 -13 17 -13 53 l0 53 303 98 c166 54 352 114 412 134 61 19 105
37 98 39 -15 5 -588 -171 -775 -239 l-58 -20 0 -70 0 -70 -37 6 c-30 5 -101
-13 -343 -88 -167 -51 -306 -98 -308 -104 -4 -13 4 -10 308 83 297 92 315 97
344 89 l26 -6 0 -109 c0 -108 0 -110 -25 -119 l-25 -10 0 -240 0 -239 -67 0
c-38 0 -129 -11 -203 -24 -74 -14 -186 -33 -248 -43 -90 -15 -112 -21 -112
-35 0 -14 13 -14 138 7 129 22 191 29 181 20 -2 -2 -74 -16 -159 -30 -85 -15
-156 -28 -158 -30 -2 -3 -2 -15 0 -28 l3 -24 175 27 c96 15 183 28 193 28 16
1 17 -10 15 -126 l-3 -128 -105 -16 c-58 -9 -145 -22 -195 -29 -50 -7 -85 -15
-78 -17 6 -2 91 7 188 21 212 31 201 31 208 6 3 -11 4 -20 2 -20 -9 0 -364
-51 -382 -55 -23 -5 -23 -7 -23 -185 l0 -180 38 5 c86 12 495 45 500 40 3 -3
3 -7 1 -9 -3 -4 -493 -46 -529 -46 -5 0 -10 -7 -10 -15 0 -19 12 -19 250 0
102 8 202 15 223 15 l38 0 -3 -57 -3 -58 -155 -12 c-85 -6 -193 -12 -240 -12
-47 -1 -92 -6 -100 -11 -20 -13 -2 -13 265 5 121 8 223 15 228 15 4 0 7 -16 7
-35 0 -41 -1 -42 -205 -50 -77 -3 -174 -8 -217 -11 -74 -6 -76 -6 -81 17 -2
13 -5 -150 -6 -363 l-1 -388 69 0 c88 0 161 -10 161 -22 0 -9 -102 -5 -192 8
-29 4 -38 2 -38 -9 0 -16 30 -23 158 -33 l82 -7 0 -29 0 -29 -122 5 c-88 3
-106 2 -63 -4 33 -4 96 -9 140 -10 80 -2 80 -2 46 -16 -77 -34 45 -63 284 -69
94 -2 154 0 135 4 -32 6 -27 8 45 19 43 7 82 16 85 20 3 5 13 11 22 15 10 3
18 16 18 27 0 23 15 24 145 10 44 -5 154 -16 245 -25 91 -9 167 -21 171 -26 6
-10 391 -53 584 -65 122 -8 198 6 231 41 l23 25 263 0 262 0 21 -26 c13 -17
36 -29 65 -35 85 -16 270 -10 440 15 91 13 298 41 460 60 162 20 306 39 319
42 23 5 23 7 20 97 -4 83 -2 92 14 91 9 0 53 -1 98 -2 l81 -2 -7 -51 -7 -52
68 7 c38 4 77 10 87 12 9 3 17 1 17 -5 0 -11 -28 -17 -117 -26 -58 -6 -62 -9
-72 -37 -14 -40 -14 -43 4 -28 21 17 219 41 385 45 80 3 163 8 185 13 l40 9
-33 9 c-29 8 -9 12 127 28 142 16 184 27 169 41 -6 6 -268 -24 -300 -35 l-28
-8 6 56 c4 32 13 67 20 79 20 31 17 43 -8 38 -18 -4 -16 1 15 33 42 43 48 62
13 39 -23 -15 -24 -15 -31 6 l-6 22 -10 -23 c-28 -67 -28 -67 -23 -5 4 34 3
83 -1 110 l-8 48 -14 -45 c-9 -29 -12 -70 -9 -115 4 -57 3 -62 -4 -29 -11 53
-16 198 -12 382 l2 143 58 -3 57 -3 1 -165 c1 -91 -2 -145 -5 -121 -7 51 -31
69 -31 23 0 -16 -3 -57 -6 -90 l-7 -61 44 1 44 0 -3 205 -3 204 53 -3 53 -3 3
-77 c3 -73 1 -78 -18 -78 -17 0 -20 -6 -20 -45 0 -25 3 -45 8 -45 4 0 6 18 4
40 -3 32 -1 40 12 40 13 0 16 -11 16 -53 0 -51 -1 -53 -27 -52 -28 0 -28 -1
-31 -67 l-3 -67 33 -3 33 -3 -3 -105 c-2 -58 -5 -106 -5 -106 -1 -1 -33 -4
-72 -5 -67 -4 -70 -3 -69 19 1 42 -13 22 -23 -33 -9 -50 -8 -55 6 -49 11 5
250 40 299 44 1 0 2 152 2 338 l0 339 -117 7 c-262 14 -303 19 -303 32 0 9
-25 15 -80 20 -58 5 -80 10 -80 20 0 8 3 14 7 14 18 0 513 -40 541 -44 17 -3
32 -1 32 3 0 5 -71 14 -157 21 -280 22 -276 22 -284 50 -7 24 -7 24 -8 3 -1
-21 -6 -23 -66 -23 l-65 0 0 45 0 45 55 0 c48 0 57 -3 65 -22 7 -18 9 -19 9
-5 1 21 -6 21 226 -3 105 -11 198 -20 208 -20 30 0 18 19 -15 23 l-33 4 33 1
c27 2 32 6 32 27 0 14 -6 25 -12 25 -50 1 -504 72 -512 81 -8 7 -1 9 24 4 19
-3 139 -21 265 -39 l230 -32 3 50 c2 29 -1 52 -8 56 -7 4 -52 13 -100 20 -94
13 -100 18 -100 78 0 26 7 27 97 7 37 -9 78 -18 91 -20 20 -5 22 -2 22 33 l0
39 -97 17 c-213 38 -497 102 -495 111 4 14 3 14 305 -49 148 -31 273 -56 278
-56 5 0 8 157 7 398 l-3 397 -2 -389 c-3 -348 -5 -387 -19 -382 -9 3 -22 6
-30 6 -12 0 -14 65 -14 429 0 276 -4 432 -10 436 -6 4 -10 -8 -10 -29 0 -20
-2 -36 -5 -36 -2 0 -35 11 -71 25 -37 14 -69 23 -71 21 -2 -2 30 -16 72 -31
l75 -28 0 -388 c0 -305 -3 -389 -12 -389 -7 0 -106 19 -220 41 l-208 42 0 93
c0 88 1 94 20 94 25 0 34 21 26 55 -5 18 -17 27 -45 35 -49 13 -51 22 -51 242
0 132 3 169 13 166 66 -25 209 -69 212 -66 2 2 -48 21 -111 43 l-114 39 0 122
c0 77 -4 124 -11 126 -6 2 -9 26 -7 59 l3 56 294 -129 c162 -70 297 -125 300
-122 3 4 2 8 -4 11 -5 2 -53 23 -105 46 l-95 43 -3 115 -3 115 75 15 c63 13
79 14 106 3 39 -17 38 4 -2 23 -21 11 -38 9 -104 -8 -43 -11 -81 -22 -84 -24
-4 -2 -8 -53 -9 -112 -1 -59 -3 -108 -5 -110 -1 -1 -80 31 -176 73 -96 41
-183 74 -195 72 -17 -3 -20 -11 -23 -66 -3 -56 -6 -64 -27 -72 -29 -11 -101
10 -717 216 l-417 139 -3 33 -3 33 -180 73 c-99 40 -266 109 -371 154 -105 45
-199 82 -210 81 -10 -1 -44 -9 -74 -20z m862 -384 c117 -37 355 -113 528 -170
510 -167 540 -176 593 -169 l47 7 0 -162 c0 -88 -4 -161 -8 -161 -5 0 -73 21
-153 46 -379 119 -1175 346 -1198 341 -24 -5 90 -40 629 -196 267 -78 540
-158 608 -178 l122 -36 0 -143 0 -142 -37 10 c-21 5 -141 38 -268 73 -572 158
-1059 285 -1094 285 -21 0 -21 1 -21 328 0 181 3 332 7 336 4 3 12 5 19 2 7
-3 108 -35 226 -71z m-2672 -354 c0 -6 -4 -13 -10 -16 -5 -3 -10 1 -10 9 0 9
5 16 10 16 6 0 10 -4 10 -9z m2046 -295 c120 -24 236 -47 257 -50 36 -7 37 -8
37 -53 0 -42 -2 -45 -22 -40 -44 11 -384 75 -458 87 -69 11 -88 10 -245 -19
-93 -17 -314 -51 -490 -76 -176 -24 -522 -74 -769 -110 -247 -36 -457 -65
-468 -65 -15 0 -19 6 -16 27 3 26 6 27 123 49 66 12 199 34 295 50 96 16 166
30 155 32 -11 1 -142 -18 -290 -44 -149 -25 -291 -48 -317 -51 -60 -7 -65 12
-6 21 24 3 140 22 258 41 118 19 310 46 425 60 203 23 495 66 1000 145 132 20
256 38 276 39 19 0 134 -19 255 -43z m807 -71 c205 -53 458 -120 562 -150 105
-29 260 -72 345 -95 85 -23 159 -46 164 -51 26 -24 -23 -18 -233 32 -126 30
-222 57 -213 60 25 9 -462 136 -823 214 -93 21 -173 39 -177 42 -9 5 -11 43
-2 43 3 0 173 -43 377 -95z m-1078 -6 c-22 -4 -53 -8 -70 -7 -29 1 -29 1 5 8
19 4 51 7 70 8 l35 0 -40 -9z m78 -6 c-7 -2 -19 -2 -25 0 -7 3 -2 5 12 5 14 0
19 -2 13 -5z m-190 -10 c-7 -2 -19 -2 -25 0 -7 3 -2 5 12 5 14 0 19 -2 13 -5z
m272 -3 c27 -7 27 -8 5 -8 -14 0 -36 4 -50 8 -20 6 -21 8 -5 8 11 0 34 -4 50
-8z m632 -12 c95 -20 103 -23 103 -45 0 -16 7 -24 25 -29 21 -5 25 -12 25 -46
0 -37 -2 -40 -22 -36 -13 3 -87 18 -165 34 l-143 28 0 46 c0 41 3 47 28 57 38
15 34 15 149 -9z m-570 -4 c-3 -3 -12 -4 -19 -1 -8 3 -5 6 6 6 11 1 17 -2 13
-5z m850 -20 c-3 -3 -12 -4 -19 -1 -8 3 -5 6 6 6 11 1 17 -2 13 -5z m-1317
-105 c0 -55 -4 -81 -12 -83 -7 -2 -155 -26 -328 -55 -173 -29 -389 -66 -480
-81 -91 -16 -298 -50 -460 -75 -162 -25 -312 -48 -332 -51 l-38 -6 0 106 c0
58 4 106 8 106 42 0 784 102 1442 199 102 15 188 26 193 24 4 -3 7 -40 7 -84z
m360 46 c130 -25 120 -17 120 -94 l0 -67 -202 -32 c-112 -18 -207 -32 -211
-32 -4 0 -6 51 -5 113 l3 112 85 11 c93 11 88 12 210 -11z m1038 -25 c376 -84
869 -193 915 -203 l47 -10 0 -78 c0 -62 -3 -79 -14 -79 -27 0 -1021 191 -1098
211 l-38 10 0 94 c0 52 2 95 5 95 3 0 85 -18 183 -40z m-3105 23 c-7 -2 -19
-2 -25 0 -7 3 -2 5 12 5 14 0 19 -2 13 -5z m-50 -10 c-7 -2 -21 -2 -30 0 -10
3 -4 5 12 5 17 0 24 -2 18 -5z m2762 -43 c61 -12 113 -24 118 -27 4 -2 7 -182
7 -400 0 -356 -2 -395 -16 -389 -9 3 -29 6 -45 6 -27 0 -29 3 -29 36 0 34 1
36 30 32 28 -4 29 -3 35 46 3 28 5 148 3 266 l-3 215 -85 16 c-47 9 -103 19
-125 23 -22 4 -36 4 -32 0 5 -5 56 -18 115 -30 l107 -21 3 -82 c2 -61 0 -81
-10 -80 -7 0 -60 8 -118 17 l-105 17 -3 193 -2 192 22 -4 c13 -3 73 -15 133
-26z m-348 -12 l113 -21 0 -59 c0 -69 6 -67 -142 -41 l-98 16 0 64 c0 35 3 63
7 63 4 0 58 -10 120 -22z m-657 -117 c0 -47 43 -36 -380 -101 -609 -93 -805
-121 -1015 -145 -262 -31 -255 -31 -255 -2 0 23 6 24 223 56 246 36 672 105
1107 180 157 28 293 50 303 50 13 1 17 -7 17 -38z m480 -111 l0 -80 -210 0
-210 0 0 55 c0 53 1 54 33 60 179 33 253 43 315 44 l72 1 0 -80z m27 -147 c-1
-43 -3 -8 -3 77 0 85 2 120 3 78 2 -43 2 -113 0 -155z m123 205 l70 -12 0
-114 0 -113 -57 6 c-32 3 -70 9 -85 11 l-28 6 0 114 c0 130 -9 121 100 102z
m940 -62 c179 -35 411 -78 515 -96 105 -18 196 -34 203 -36 15 -4 17 -124 2
-124 -5 0 -182 27 -392 59 -211 32 -454 69 -540 82 l-158 23 0 78 c0 74 1 78
23 78 12 0 169 -29 347 -64z m-790 -725 l0 -769 -67 -6 c-181 -17 -188 -17
-173 -7 8 6 31 11 51 11 20 0 64 3 98 6 l61 7 0 763 c0 672 2 764 15 764 13 0
15 -92 15 -769z m-800 -16 c0 -664 -2 -755 -15 -755 -13 0 -15 91 -15 755 0
664 2 755 15 755 13 0 15 -91 15 -755z m-62 698 l-3 -47 -197 -31 -198 -31 0
46 0 46 183 31 c241 41 219 42 215 -14z m-448 -112 l0 -80 -47 -6 c-27 -3 -65
-8 -85 -11 l-38 -6 0 80 0 80 53 10 c28 5 67 10 85 11 l32 1 0 -79z m-1150 39
c0 -6 -25 -9 -57 -8 l-58 1 50 7 c28 4 53 8 58 8 4 1 7 -2 7 -8z m3140 -30
c286 -43 779 -119 813 -126 25 -5 27 -9 27 -58 l0 -53 -52 5 c-29 2 -276 32
-548 66 l-495 62 -3 73 -3 73 28 -6 c15 -3 120 -20 233 -36z m-1540 2 l0 -29
-192 -26 c-106 -15 -199 -27 -205 -27 -7 0 -13 11 -13 25 0 14 6 25 13 25 10
1 387 57 395 59 1 1 2 -12 2 -27z m472 18 l88 0 0 -40 0 -40 -210 0 -210 0 0
47 0 46 122 -6 c66 -4 161 -7 210 -7z m-1156 -17 c-4 -5 -58 -15 -119 -23
l-112 -15 -3 -124 -3 -124 48 7 c85 11 188 19 183 13 -3 -3 -46 -11 -95 -17
-50 -6 -105 -13 -122 -16 l-33 -5 0 136 c0 74 1 135 3 136 2 1 237 36 251 38
5 1 6 -2 2 -6z m1734 -3 c36 -6 77 -13 93 -16 l27 -6 0 -154 0 -155 -62 7
c-177 20 -162 14 -170 59 -4 22 -7 93 -7 158 l-1 117 28 0 c15 0 56 -5 92 -10z
m-2030 -180 c0 -139 -1 -150 -19 -150 -10 0 -46 -3 -80 -6 l-61 -7 0 151 0
151 48 4 c26 2 62 4 80 5 l32 2 0 -150z m1708 134 l52 -7 0 -233 0 -234 -34 0
c-34 0 -34 -1 -40 -52 -11 -94 -24 -493 -16 -503 4 -5 10 -26 14 -46 10 -57
47 -77 45 -25 0 21 -1 21 -9 1 -6 -16 -9 -17 -13 -5 -8 23 -18 82 -19 110 -1
47 19 230 25 237 4 3 7 -50 8 -118 1 -180 14 -195 16 -19 l2 150 -25 0 c-23 0
-24 2 -24 70 l0 70 35 0 35 0 -2 -332 -3 -333 -49 -3 c-82 -5 -91 0 -93 55 -1
26 -5 66 -8 89 -6 37 -4 43 22 64 l28 22 -32 -7 -33 -7 0 537 0 537 33 -6 c17
-3 56 -8 85 -12z m-2144 -20 l49 -6 -6 -96 c-4 -53 -7 -320 -7 -594 l0 -496
-50 -4 c-47 -3 -50 -2 -50 21 0 23 -1 24 -20 6 -23 -21 -26 -9 -5 21 8 12 11
24 8 28 -13 13 -31 5 -38 -16 -15 -43 -23 171 -24 668 l-1 491 48 -9 c26 -4
69 -11 96 -14z m246 -133 l0 -148 -67 -6 c-126 -12 -113 -28 -113 138 l0 144
33 5 c69 12 83 13 115 15 l32 1 0 -149z m-521 114 c-1 -5 -10 -9 -21 -7 -26 5
-22 -14 5 -23 19 -6 19 -8 5 -12 -22 -5 -24 -33 -3 -33 8 0 15 -4 15 -10 0 -5
-11 -10 -24 -10 -22 0 -24 5 -28 50 -2 38 1 51 12 54 23 6 41 2 39 -9z m-82
-53 c1 -53 -8 -66 -26 -34 -10 16 -10 16 -11 0 0 -10 -6 -18 -12 -18 -9 0 -12
15 -10 50 2 27 7 50 11 50 4 0 13 -15 20 -32 13 -31 14 -31 18 -10 3 13 -1 30
-9 39 -11 14 -11 15 2 11 10 -3 16 -20 17 -56z m-88 35 c-20 -15 -33 -64 -19
-72 6 -4 11 8 11 27 l2 33 6 -35 c9 -43 6 -50 -22 -50 -20 0 -22 5 -22 48 0
50 8 62 40 62 18 -1 18 -2 4 -13z m1859 -619 l-2 -633 -6 622 c-3 342 -8 625
-12 629 -5 4 -8 -22 -8 -59 l0 -66 -32 -5 c-18 -3 -96 -13 -173 -21 -77 -9
-148 -18 -157 -21 -16 -5 -18 3 -18 65 0 39 1 71 3 71 29 6 360 48 380 49 l27
1 -2 -632z m-1948 600 c0 12 5 22 10 22 6 0 10 -22 10 -50 0 -27 -4 -50 -10
-50 -5 0 -10 6 -10 14 0 8 -5 18 -11 22 -8 5 -10 -1 -7 -20 3 -14 1 -26 -3
-26 -8 0 -13 17 -22 72 -5 34 14 42 30 14 l12 -21 1 23z m-70 -15 c0 -16 -5
-35 -10 -43 -7 -11 -10 -4 -10 28 0 23 5 42 10 42 6 0 10 -12 10 -27z m2570
-38 l0 -65 -210 0 -210 0 0 65 0 65 210 0 210 0 0 -65z m27 -852 c-1 -170 -2
-31 -2 307 0 338 1 477 2 308 2 -170 2 -446 0 -615z m-2581 819 c-11 -10 -14
3 -7 38 l6 35 3 -33 c2 -19 1 -36 -2 -40z m1554 -7 c0 -69 -2 -76 -22 -85
l-23 -9 23 0 22 -1 0 -504 0 -503 -72 4 c-40 3 -79 6 -85 8 -10 4 -13 127 -13
574 l0 571 23 5 c30 6 75 12 115 14 l32 1 0 -75z m1750 -277 c0 -178 3 -441 7
-585 5 -240 4 -263 -11 -263 -15 0 -16 49 -16 585 0 383 3 585 10 585 6 0 10
-114 10 -322z m139 307 l81 -8 0 -88 0 -88 -27 4 c-16 2 -58 7 -95 10 l-68 7
0 90 c0 72 3 89 14 85 7 -3 50 -9 95 -12z m-3474 -25 c3 -5 1 -10 -4 -10 -6 0
-11 5 -11 10 0 6 2 10 4 10 3 0 8 -4 11 -10z m3763 -17 l32 -5 0 -79 0 -79
-47 6 c-27 3 -67 7 -90 10 l-43 5 0 81 0 80 58 -6 c31 -4 72 -10 90 -13z m203
-23 c17 0 19 -9 19 -75 l0 -75 -42 0 c-24 0 -60 3 -80 6 l-38 7 0 75 0 75 61
-7 c34 -3 70 -6 80 -6z m132 -15 l47 -6 0 -76 0 -76 -52 7 c-29 3 -61 6 -70 6
-16 0 -18 10 -18 73 0 80 2 87 28 81 9 -1 38 -6 65 -9z m317 -565 l0 -580 -25
0 -25 0 0 580 0 580 25 0 25 0 0 -580z m-2408 198 l-3 -368 -24 0 c-20 0 -25
5 -25 25 0 14 -5 25 -11 25 -7 0 -9 -10 -7 -25 4 -17 1 -25 -8 -25 -8 0 -14
-4 -14 -10 0 -5 20 -10 45 -10 l45 0 0 -160 0 -160 -45 0 -45 0 0 146 c0 126
-2 145 -15 140 -12 -4 -15 4 -15 39 0 25 5 45 10 45 6 0 10 -6 10 -12 0 -9 3
-8 10 2 7 11 1 19 -26 34 l-34 20 0 175 0 176 -31 18 c-41 23 -53 22 -86 -10
l-28 -28 -5 -173 c-5 -159 -4 -172 13 -172 15 0 17 15 17 165 0 103 4 165 10
165 6 0 10 -62 10 -165 0 -140 2 -165 15 -165 13 0 15 25 15 165 0 91 2 165 4
165 2 0 10 2 18 5 11 4 12 -26 10 -161 -3 -144 -2 -166 11 -161 11 4 13 0 10
-14 -3 -10 -14 -19 -25 -19 -16 0 -19 -6 -16 -42 2 -36 7 -44 26 -46 20 -3 22
1 24 55 l2 58 3 -50 c3 -27 9 -55 15 -62 8 -10 -1 -13 -46 -13 l-56 0 0 -134
0 -134 -62 5 c-35 3 -64 6 -65 7 0 0 -3 227 -5 504 l-3 502 30 5 c40 6 350 42
350 40 0 0 -1 -165 -3 -367z m578 32 l0 -330 -30 0 -30 0 0 -200 0 -200 -60 0
-60 0 0 140 0 140 -120 0 c-73 0 -120 4 -120 10 0 6 47 10 120 10 73 0 120 4
120 10 0 6 -6 10 -14 10 -9 0 -12 7 -9 20 4 15 0 20 -16 20 -14 0 -21 -6 -21
-20 0 -22 -15 -27 -24 -7 -5 10 -7 10 -12 0 -9 -20 -134 -18 -134 2 0 10 10
15 34 15 19 0 47 5 62 10 l27 11 -7 82 c-3 45 -9 100 -13 121 -4 28 -3 37 5
32 7 -4 12 -24 13 -44 1 -20 5 -48 10 -62 6 -20 7 -17 4 15 -2 22 -7 79 -11
127 -6 86 -7 88 -40 107 -19 11 -34 27 -34 35 0 9 -11 16 -27 18 -20 2 -29 9
-31 25 -3 22 -1 22 112 25 151 4 151 23 1 24 l-110 1 -3 91 -3 92 211 0 210 0
0 -330z m1738 314 c20 -4 22 -10 22 -80 l0 -77 -37 7 c-21 3 -55 6 -75 6 l-38
0 0 80 0 79 53 -5 c28 -3 62 -7 75 -10z m-2968 -44 c0 -5 -6 -10 -12 -10 -7
-1 -67 -7 -133 -14 -110 -13 -136 -13 -124 -2 2 2 60 11 129 19 69 8 128 15
133 16 4 1 7 -3 7 -9z m-310 -150 l0 -120 -25 0 c-24 0 -24 1 -18 65 4 46 2
65 -6 65 -10 0 -16 -51 -12 -106 2 -19 -4 -22 -44 -26 -26 -2 -48 -1 -49 2 -1
3 -1 55 2 117 l4 112 32 4 c17 2 50 5 74 5 l42 2 0 -120z m-180 -5 l0 -115
-82 0 c-57 0 -78 -3 -68 -10 8 -5 45 -10 81 -10 l65 0 2 -325 c1 -367 10 -331
-82 -319 l-46 7 0 53 c0 49 2 54 23 54 22 0 22 0 15 113 -4 61 -6 135 -3 162
l4 50 -11 -45 c-5 -25 -12 -51 -14 -57 -2 -7 -17 -13 -34 -13 l-30 0 0 -105
c0 -87 3 -105 15 -105 12 0 15 -13 15 -55 0 -47 -3 -55 -19 -55 -17 0 -19 15
-26 229 -4 126 -4 239 0 250 13 42 25 8 25 -70 0 -43 4 -79 9 -79 11 0 41 73
41 101 0 11 5 17 10 14 13 -8 13 -3 0 30 -5 14 -14 24 -19 21 -4 -3 -17 2 -27
10 -18 14 -17 15 15 11 30 -3 32 -2 17 9 -17 12 -16 13 3 24 12 6 21 15 21 20
0 17 -25 11 -43 -10 -9 -11 -21 -20 -27 -20 -6 0 -10 60 -10 164 l0 165 43 5
c23 3 58 7 77 9 19 2 41 5 48 5 9 2 12 -27 12 -113z m2683 98 c4 -2 7 -213 7
-467 l0 -463 -52 -7 c-29 -3 -72 -6 -95 -6 l-43 0 0 300 0 300 48 2 47 2 -47
3 -48 4 0 175 0 176 88 -7 c48 -4 90 -9 95 -12z m-2193 -138 l0 -135 -77 0
c-89 0 -153 -9 -153 -21 0 -4 52 -5 115 -2 l115 6 0 -28 0 -28 -24 22 c-20 19
-25 20 -28 7 -3 -14 -6 -14 -28 -3 -38 20 -98 -15 -128 -75 -22 -44 -23 -55
-25 -327 -1 -154 1 -281 5 -281 3 0 8 101 10 225 2 162 6 228 15 233 7 5 13
39 15 87 2 51 7 80 15 82 10 4 11 -24 5 -124 -4 -70 -7 -155 -7 -187 0 -57 1
-60 32 -75 27 -13 33 -22 33 -48 0 -31 2 -33 35 -33 31 0 35 3 35 25 0 14 2
25 4 25 2 0 11 3 20 6 14 5 16 -4 16 -64 0 -47 -4 -72 -12 -75 -37 -13 35 -21
399 -46 219 -15 387 -30 374 -33 -12 -4 -53 -5 -90 -2 -546 37 -677 46 -683
50 -5 3 -6 -13 -2 -35 l7 -41 -127 3 -126 2 0 498 c0 389 3 499 13 502 15 6
159 22 210 24 l37 1 0 -135z m3358 110 c226 -26 264 -32 222 -34 -32 -1 -473
49 -479 55 -8 8 39 4 257 -21z m-916 -5 c54 -6 118 -10 143 -10 42 0 45 -2 45
-26 l0 -27 -97 7 c-54 4 -137 9 -185 13 l-88 6 0 28 c0 28 1 28 43 24 23 -3
86 -10 139 -15z m-619 -17 l67 -6 0 -457 0 -457 -102 -7 c-57 -4 -120 -10
-140 -13 l-38 -6 0 477 0 476 73 0 c39 0 102 -3 140 -7z m955 -8 c9 -3 12 -69
12 -282 0 -153 -4 -284 -9 -291 -5 -9 -10 2 -13 33 -3 25 -9 49 -13 53 -11 11
-32 -25 -40 -71 -7 -40 -8 -41 -15 -15 -4 15 -17 40 -29 57 -20 28 -21 41 -21
278 l0 250 58 -4 c31 -3 63 -6 70 -8z m175 -11 l37 -7 0 -392 0 -392 -31 -7
c-17 -3 -49 -6 -70 -6 l-39 0 0 70 c0 39 -2 70 -5 70 -3 0 -27 -16 -55 -36
-27 -20 -50 -31 -50 -25 0 13 87 71 107 71 18 0 16 17 -3 28 -11 6 -13 11 -5
16 12 8 16 76 4 76 -5 0 -7 121 -5 270 l3 270 37 0 c20 0 54 -3 75 -6z m-535
-30 l52 -5 0 -95 0 -95 -102 3 -103 3 -3 102 -3 102 53 -5 c29 -3 77 -7 106
-10z m166 -10 l46 -7 0 -138 0 -139 -52 -2 -53 -1 55 -7 55 -7 -58 -1 c-71 -2
-68 -22 4 -22 46 0 49 -2 49 -25 0 -30 -15 -33 -30 -5 -11 20 -11 20 -36 -5
-30 -30 -44 -73 -44 -135 0 -33 3 -41 10 -30 10 15 10 12 -5 -112 -4 -27 -10
-48 -14 -48 -14 0 -21 129 -21 413 l0 277 24 0 c13 0 44 -3 70 -6z m-1134 -79
c0 -41 -2 -45 -25 -45 -23 0 -25 4 -25 45 0 41 2 45 25 45 23 0 25 -4 25 -45z
m-590 25 c0 -5 -10 -10 -22 -9 -22 0 -22 1 -3 9 11 5 21 9 23 9 1 1 2 -3 2 -9z
m-420 -35 c0 -8 -6 -15 -14 -15 -17 0 -28 14 -19 24 12 12 33 6 33 -9z m429
-17 c0 -13 -4 -32 -8 -43 -7 -18 -10 -15 -25 19 -20 48 -21 46 9 46 19 0 25
-5 24 -22z m2323 -61 l2 -72 6 75 7 75 -1 -95 -1 -95 -57 -3 -58 -3 0 98 0 98
50 -3 50 -4 2 -71z m-2384 66 c-1 -5 6 -33 15 -65 21 -68 21 -72 3 -65 -11 5
-13 -5 -9 -51 2 -31 0 -84 -5 -117 -9 -55 -10 -49 -11 70 -1 72 -4 154 -7 183
-5 36 -3 52 5 52 6 0 10 -3 9 -7z m122 -16 c0 -23 -53 -122 -58 -108 -3 8 1
38 8 67 10 41 18 54 32 54 10 0 18 -6 18 -13z m-1240 -37 c0 -27 -2 -30 -19
-20 -25 13 -36 30 -20 30 7 0 10 3 6 6 -3 3 -24 -8 -45 -26 -50 -40 -62 -83
-62 -217 0 -84 3 -101 19 -115 18 -15 19 -14 25 33 4 26 4 59 0 73 -3 15 0 36
10 53 8 15 18 49 21 76 6 45 24 66 26 30 1 -10 5 -81 8 -158 l8 -140 1 163 c1
100 6 162 12 162 6 0 10 -78 10 -212 l0 -213 -80 3 -80 4 0 242 c0 134 3 246
7 249 3 4 39 7 80 7 l73 0 0 -30z m-637 -285 c-5 -231 -3 -297 7 -310 11 -13
7 -15 -32 -15 l-43 0 7 98 c10 121 2 207 -23 251 -15 26 -18 44 -13 76 10 67
0 85 -47 85 l-39 0 0 50 0 49 63 4 c34 2 76 4 94 5 l32 2 -6 -295z m-213 35
l0 -250 -30 0 c-29 0 -30 2 -30 45 0 80 -31 299 -46 323 -8 12 -22 22 -31 22
-9 0 -14 -3 -10 -6 3 -3 1 -18 -4 -32 -15 -38 0 -212 17 -212 11 0 14 24 15
108 1 113 16 102 18 -15 1 -39 5 -63 14 -66 8 -2 12 -29 11 -90 0 -83 1 -87
22 -87 44 0 54 -10 54 -55 l0 -44 -46 -7 c-53 -8 -47 -23 13 -34 l38 -8 -33
-1 c-18 0 -43 4 -54 10 -22 12 -22 14 -2 -36 5 -12 -4 -15 -49 -15 -92 0 -87
-11 -87 181 0 106 4 169 10 169 6 0 10 -4 10 -10 0 -5 7 -10 17 -10 14 0 15
11 10 104 -7 108 2 160 29 170 20 8 8 26 -17 26 -12 0 -19 -7 -19 -19 0 -10
-9 -21 -20 -24 -18 -5 -20 0 -20 49 l0 53 98 4 c53 1 103 4 110 5 9 2 12 -54
12 -248z m4795 -144 l25 6 0 -106 0 -106 -30 0 -30 0 2 303 c2 246 3 264 5 99
l3 -202 25 6z m25 314 c0 -64 -3 -80 -15 -80 -12 0 -15 16 -15 80 0 64 3 80
15 80 12 0 15 -16 15 -80z m-4010 55 c0 -8 -8 -15 -19 -15 -15 0 -20 -10 -25
-59 -6 -53 -27 -93 -42 -78 -10 9 8 97 22 112 8 7 14 18 14 23 0 7 29 26 48
31 1 1 2 -6 2 -14z m2783 -25 l37 0 1 -172 c0 -95 6 -207 13 -248 l12 -75 59
4 c33 2 61 4 62 5 1 0 -2 21 -7 46 -12 67 -22 176 -16 170 10 -11 43 -149 33
-143 -6 4 -8 0 -4 -11 4 -10 7 -29 7 -42 0 -14 6 -24 14 -24 24 0 29 -20 10
-35 -11 -7 -22 -11 -26 -9 -5 3 -8 -4 -8 -16 0 -12 -9 -24 -22 -29 -21 -9
-248 -31 -311 -31 l-27 0 0 260 1 260 25 0 c30 0 31 -16 2 -49 -18 -20 -19
-22 -3 -11 19 15 19 14 2 -10 -13 -19 -17 -47 -17 -128 0 -66 4 -101 10 -97 6
3 10 36 11 73 0 37 4 85 8 107 l9 40 0 -45 c1 -43 -21 -269 -29 -300 -3 -11 7
-16 39 -18 l42 -3 0 90 c0 54 4 91 10 91 6 0 10 -6 10 -14 0 -8 5 -18 10 -21
7 -4 10 33 8 112 -3 117 -3 119 -32 143 -28 23 -28 23 -17 2 10 -19 9 -22 -8
-22 -27 0 -34 15 -19 40 9 14 23 20 49 20 l36 0 8 -140 c7 -145 2 -170 -32
-170 -10 0 -13 -6 -9 -16 3 -9 6 -33 6 -55 0 -36 2 -39 29 -39 53 0 61 8 61
62 0 40 -4 51 -19 55 -17 4 -19 21 -27 161 l-9 157 -77 3 -78 3 0 41 0 41 68
-6 c37 -4 84 -7 105 -7z m-2530 -28 c-15 -10 -33 -57 -33 -88 0 -14 -4 -22
-10 -19 -16 10 -12 85 5 91 8 4 12 10 9 15 -3 5 5 9 18 9 14 0 18 -3 11 -8z
m67 -67 c0 -36 -4 -65 -9 -65 -11 0 -25 106 -16 120 16 25 25 5 25 -55z m-40
21 c0 -53 -12 -86 -32 -86 -17 0 -19 5 -12 48 6 43 17 61 37 62 4 0 7 -11 7
-24z m70 -26 c0 -27 -4 -50 -10 -50 -5 0 -10 23 -10 50 0 28 5 50 10 50 6 0
10 -22 10 -50z m887 -45 c6 -49 11 -90 10 -91 -1 -1 -17 -5 -34 -9 l-33 -7 0
102 c0 99 0 101 23 98 20 -3 23 -12 34 -93z m-1947 40 c0 -32 -4 -45 -14 -45
-8 0 -17 6 -19 13 -3 6 -6 2 -6 -10 -1 -13 -7 -23 -16 -23 -12 0 -15 13 -15
55 l0 55 35 0 c35 0 35 0 35 -45z m-296 11 c-12 -19 -15 -44 -12 -105 2 -43 0
-77 -4 -74 -14 8 -9 191 5 196 25 10 27 7 11 -17z m733 -18 c-3 -8 -6 -5 -6 6
-1 11 2 17 5 13 3 -3 4 -12 1 -19z m3813 -119 l0 -120 -27 3 -28 3 4 90 c2 52
8 93 15 97 6 5 2 8 -11 8 -21 0 -22 -4 -25 -102 -2 -70 -7 -103 -15 -106 -10
-3 -13 26 -13 122 l0 126 50 0 50 0 0 -121z m470 1 c0 -82 -3 -100 -15 -100
-12 0 -15 18 -15 100 0 82 3 100 15 100 12 0 15 -18 15 -100z m-4080 22 c0
-20 -5 -44 -10 -52 -7 -11 -10 2 -10 43 0 36 4 56 10 52 6 -3 10 -23 10 -43z
m419 -100 c-2 -163 -16 -134 -18 36 -1 73 3 111 9 107 6 -4 10 -61 9 -143z
m2359 126 c-4 -27 -23 -34 -32 -13 -8 21 1 35 20 35 10 0 14 -8 12 -22z m250
-5 c18 -39 15 -49 -8 -28 -19 17 -28 55 -12 55 4 0 13 -12 20 -27z m-3690
-165 c2 -139 0 -160 -12 -145 -20 26 -26 21 -15 -13 6 -16 9 -36 7 -45 -2 -13
-6 -14 -19 -3 -13 11 -15 39 -11 191 4 176 4 177 27 177 22 0 22 -1 23 -162z
m986 125 c7 -48 -4 -203 -15 -203 -5 0 -9 54 -9 120 0 117 11 157 24 83z
m-935 -157 c-1 -83 -5 -162 -10 -176 -4 -14 -5 45 -2 131 4 105 2 167 -5 189
-10 28 -10 31 4 20 12 -11 14 -39 13 -164z m3578 107 c-3 -10 -5 -4 -5 12 0
17 2 24 5 18 2 -7 2 -21 0 -30z m983 -18 c0 -30 -4 -55 -10 -55 -5 0 -10 25
-10 55 0 30 5 55 10 55 6 0 10 -25 10 -55z m-4593 -62 c-2 -21 -4 -4 -4 37 0
41 2 58 4 38 2 -21 2 -55 0 -75z m2291 -77 c2 -177 0 -195 -30 -196 -5 0 -8
86 -8 191 0 176 1 190 18 187 15 -3 17 -21 20 -182z m1452 41 c10 -10 12 -8 6
6 -3 11 -8 31 -11 45 l-5 27 11 -25 c6 -14 12 -47 14 -75 l3 -50 -30 63 c-17
35 -32 85 -35 110 -3 44 -2 42 15 -21 10 -37 24 -73 32 -80z m60 19 c-6 -16
-13 -27 -16 -24 -2 3 0 17 6 32 5 15 11 39 12 54 1 25 1 25 5 -4 2 -16 -1 -43
-7 -58z m70 19 c-12 -19 -31 -40 -42 -46 -24 -13 -20 -4 26 53 36 46 46 42 16
-7z m-1780 -50 c0 -21 -5 -35 -12 -35 -7 0 -57 -3 -110 -7 l-98 -6 0 42 0 41
110 0 110 0 0 -35z m2170 8 c6 -16 15 -37 21 -48 11 -19 11 -19 -7 -3 -26 23
-47 9 -38 -25 3 -15 9 -27 13 -27 4 0 16 -7 27 -16 18 -15 18 -15 -10 -9 l-29
6 18 -27 c22 -33 47 -126 37 -135 -4 -4 -37 -10 -74 -14 l-68 -7 0 166 0 166
50 0 c46 0 51 -2 60 -27z m-2652 -103 c1 -63 -1 -120 -5 -125 -5 -6 -34 -9
-67 -7 l-58 4 6 45 c3 25 6 81 6 125 l0 79 58 -3 57 -3 3 -115z m2706 50 c4
-24 3 -29 -3 -15 -4 11 -11 36 -15 55 -4 24 -3 29 3 15 4 -11 11 -36 15 -55z
m-434 55 c0 -2 -10 -10 -22 -16 -21 -11 -22 -11 -9 4 13 16 31 23 31 12z
m-135 -88 c8 -9 15 -31 15 -47 0 -26 -3 -30 -29 -30 -16 0 -32 -6 -34 -12 -4
-9 -6 -7 -6 3 -1 9 10 21 24 27 30 14 32 35 5 69 -11 14 -20 31 -20 37 0 6 7
2 16 -9 8 -11 21 -28 29 -38z m-2995 -28 l0 -72 -46 7 c-26 3 -62 6 -80 6
l-34 0 0 65 0 65 80 0 80 0 0 -71z m1340 -34 l0 -85 -110 0 -110 0 0 85 0 85
110 0 110 0 0 -85z m2196 64 l19 -22 -32 17 c-35 18 -41 26 -20 26 8 0 22 -10
33 -21z m-391 -19 c4 -6 -5 -10 -19 -10 -14 0 -26 5 -26 10 0 6 9 10 19 10 11
0 23 -4 26 -10z m-3735 -19 c16 -31 12 -36 -10 -11 -23 26 -24 30 -10 30 5 0
14 -9 20 -19z m3671 0 c-6 -10 -8 -20 -6 -23 2 -2 -5 -9 -15 -16 -26 -16 -25
-2 1 32 24 30 34 34 20 7z m66 -48 c-9 -8 -48 8 -42 18 4 5 14 5 26 -2 12 -6
18 -13 16 -16z m98 -13 c-27 -5 -66 -8 -85 -8 -32 1 -31 2 10 8 25 4 63 7 85
7 38 0 37 0 -10 -7z m-4078 -6 c-3 -3 -12 -4 -19 -1 -8 3 -5 6 6 6 11 1 17 -2
13 -5z m456 -1 c-13 -2 -35 -2 -50 0 -16 2 -5 4 22 4 28 0 40 -2 28 -4z m-247
-12 c-3 -5 1 -11 9 -15 12 -4 15 -26 15 -105 l0 -100 -37 5 c-21 3 -53 7 -70
10 l-33 5 0 94 0 95 51 0 c31 0 48 4 44 10 -3 6 1 10 10 10 9 0 14 -4 11 -9z
m581 -1 c23 0 43 -4 43 -10 0 -10 -139 -5 -265 11 -56 6 -46 7 54 4 68 -3 144
-5 168 -5z m2938 -11 c-16 -4 -140 -17 -275 -29 -135 -11 -258 -22 -275 -25
-24 -3 -26 -2 -10 5 11 5 133 18 270 30 138 12 255 23 260 25 6 2 21 3 35 3
23 0 23 -1 -5 -9z m-3215 -93 l0 -94 -42 -6 c-24 -3 -82 -8 -130 -12 l-88 -7
0 107 0 106 130 0 130 0 0 -94z m2610 -31 c0 -43 -4 -75 -10 -75 -6 0 -10 32
-10 75 0 43 4 75 10 75 6 0 10 -32 10 -75z m-90 -10 c0 -41 -3 -75 -7 -75 -4
0 -63 -7 -131 -16 -146 -19 -142 -21 -142 78 l0 66 68 7 c37 3 76 7 87 9 11 2
44 4 73 5 l52 1 0 -75z m-680 53 c0 -7 -3 -23 -6 -35 -6 -23 -8 -23 -195 -23
l-189 0 0 35 0 35 195 0 c149 0 195 -3 195 -12z m390 -74 c0 -48 -3 -65 -12
-62 -8 3 -14 28 -16 66 -2 51 0 62 13 62 12 0 15 -13 15 -66z m-1960 36 c35
-8 35 -8 -11 -9 -80 -2 -229 12 -229 21 0 9 185 0 240 -12z m2965 1 c-6 -5
-127 -23 -270 -40 -143 -17 -275 -34 -292 -37 -18 -3 -33 -1 -33 4 0 5 60 17
133 26 72 10 193 25 267 36 156 21 208 24 195 11z m-2615 -36 c0 -17 -6 -25
-17 -25 -32 0 -277 21 -323 28 l-45 6 60 7 c33 3 120 6 193 7 l132 2 0 -25z
m405 -41 c160 -14 292 -28 294 -30 18 -17 -50 -15 -322 10 -172 15 -322 30
-334 33 -42 10 -23 24 25 18 26 -3 178 -17 337 -31z m747 19 c-62 -2 -161 -2
-220 0 -59 1 -8 3 113 3 121 0 169 -2 107 -3z m782 -8 c3 -8 1 -15 -4 -15 -6
0 -10 7 -10 15 0 8 2 15 4 15 2 0 6 -7 10 -15z m-1937 -21 c-3 -3 -12 -4 -19
-1 -8 3 -5 6 6 6 11 1 17 -2 13 -5z m1488 -25 c-22 -4 -62 -8 -90 -7 -47 1
-48 1 -15 8 19 4 60 7 90 8 54 0 55 0 15 -9z"/>
<path d="M3660 3806 c52 -28 579 -210 587 -202 2 2 -33 18 -79 36 -94 36 -517
180 -527 180 -3 -1 5 -7 19 -14z"/>
<path d="M1163 3153 c9 -2 23 -2 30 0 6 3 -1 5 -18 5 -16 0 -22 -2 -12 -5z"/>
<path d="M3464 3002 c3 -5 18 -12 33 -15 686 -145 1063 -218 1063 -208 0 3
-118 30 -262 59 -273 55 -776 158 -816 167 -13 3 -21 2 -18 -3z"/>
<path d="M1552 1935 c0 -304 3 -521 8 -510 10 24 11 836 1 955 -5 50 -8 -136
-9 -445z"/>
<path d="M1781 2073 c-11 -22 -35 -299 -26 -313 16 -26 20 1 22 141 2 82 8
159 13 170 6 10 8 19 6 19 -3 0 -9 -8 -15 -17z"/>
<path d="M1961 2014 c0 -11 3 -14 6 -6 3 7 2 16 -1 19 -3 4 -6 -2 -5 -13z"/>
<path d="M1973 1875 c0 -66 1 -113 4 -104 4 18 32 29 71 29 21 0 23 -4 21 -50
-2 -44 4 -71 15 -59 2 2 1 32 -2 67 -4 57 -6 62 -28 62 -19 0 -23 6 -26 38 -2
29 -7 37 -23 37 -17 0 -21 9 -26 50 -4 32 -6 6 -6 -70z m47 -25 c0 -23 -4 -30
-20 -30 -16 0 -20 7 -20 30 0 23 4 30 20 30 16 0 20 -7 20 -30z"/>
<path d="M2553 2087 c-12 -12 -31 -29 -41 -38 -14 -12 -23 -40 -31 -105 -7
-49 -14 -99 -17 -111 -3 -16 0 -23 10 -23 25 0 31 21 37 130 l6 105 1 -112 2
-113 26 0 26 0 -3 118 c-3 99 -2 117 11 117 13 0 15 -19 13 -115 -1 -87 1
-104 7 -70 5 25 9 75 9 113 1 51 4 67 15 67 15 0 15 -12 -5 -129 -10 -60 -12
-107 -4 -99 3 3 9 32 14 64 l10 59 -2 -63 c-1 -34 1 -62 6 -62 4 0 7 33 7 73
0 39 3 88 6 108 5 31 2 40 -29 72 -19 20 -38 37 -43 37 -5 0 -19 -10 -31 -23z
m47 -17 c0 -5 -7 -7 -15 -4 -8 4 -15 8 -15 10 0 2 7 4 15 4 8 0 15 -4 15 -10z
m-50 -130 c0 -67 -4 -110 -10 -110 -11 0 -14 202 -3 213 12 13 13 7 13 -103z"/>
<path d="M1110 2165 c0 -25 5 -45 10 -45 6 0 10 20 10 45 0 25 -4 45 -10 45
-5 0 -10 -20 -10 -45z"/>
<path d="M1022 2160 c-1 -25 3 -52 8 -60 9 -13 10 -13 10 0 0 13 1 13 10 0 7
-11 10 0 10 38 0 59 -19 72 -22 15 l-1 -38 -7 45 -7 45 -1 -45z"/>
<path d="M1002 2115 c0 -16 2 -22 5 -12 2 9 2 23 0 30 -3 6 -5 -1 -5 -18z"/>
<path d="M872 1760 c0 -19 2 -27 5 -17 2 9 2 25 0 35 -3 9 -5 1 -5 -18z"/>
<path d="M3132 2170 c-4 -3 -6 -93 -4 -200 2 -127 6 -190 12 -180 5 8 10 93
10 188 l0 173 73 -3 72 -3 3 -376 2 -376 -102 -9 -103 -9 70 -3 c39 -1 88 1
110 6 l40 8 3 387 c1 213 1 387 0 388 -15 5 -181 13 -186 9z"/>
<path d="M3241 1898 c1 -216 7 -308 19 -283 10 20 -1 515 -10 515 -6 0 -10
-89 -9 -232z"/>
<path d="M3740 2106 c0 -18 5 -23 25 -23 18 0 25 5 25 19 0 18 -2 19 -17 7 -9
-8 -14 -9 -10 -3 4 7 0 14 -8 18 -11 4 -15 -1 -15 -18z"/>
<path d="M3802 2098 c2 -13 8 -23 13 -23 6 0 11 10 13 23 2 15 -2 22 -13 22
-11 0 -15 -7 -13 -22z"/>
<path d="M3847 2091 c-3 -14 1 -18 19 -18 17 0 24 5 24 18 0 12 -7 19 -19 19
-10 0 -21 -8 -24 -19z"/>
<path d="M4568 2064 c-4 -5 -3 -16 2 -24 5 -8 7 -32 5 -55 -3 -28 -2 -33 3
-15 5 17 10 21 16 12 4 -6 4 -16 1 -22 -3 -5 -2 -10 4 -10 5 0 9 14 9 30 -1
17 -5 30 -9 30 -5 0 -12 14 -17 32 -4 18 -11 28 -14 22z"/>
<path d="M1085 1792 c-10 -7 -11 -27 -7 -101 1 -25 5 -32 13 -24 13 13 8 135
-6 125z"/>
<path d="M1955 4310 c-27 -10 -43 -18 -35 -18 8 0 38 8 65 18 28 10 43 18 35
18 -8 0 -37 -8 -65 -18z"/>
<path d="M1832 4273 c-24 -8 -41 -17 -39 -19 2 -2 28 5 58 15 30 11 47 20 39
19 -8 0 -34 -6 -58 -15z"/>
<path d="M1620 4194 c-413 -110 -646 -179 -654 -193 -3 -5 34 4 82 19 48 15
233 67 412 115 179 48 327 90 329 92 17 13 -25 5 -169 -33z"/>
<path d="M3650 4130 c0 -4 -19 -15 -42 -23 l-43 -15 55 1 c45 1 78 -9 180 -52
187 -80 582 -232 588 -226 7 7 -69 39 -396 165 -161 62 -291 115 -289 117 6 5
481 -177 715 -274 6 -3 12 -1 12 5 0 11 -488 208 -727 292 -29 11 -53 15 -53
10z"/>
<path d="M3538 4083 c7 -3 16 -2 19 1 4 3 -2 6 -13 5 -11 0 -14 -3 -6 -6z"/>
<path d="M2375 3874 c-759 -160 -1543 -339 -1532 -350 3 -3 148 29 323 70 256
60 927 208 1214 268 30 6 62 15 70 19 20 11 7 10 -75 -7z"/>
<path d="M2530 3847 c7 -7 322 -110 419 -136 141 -39 56 -3 -149 63 -195 62
-281 86 -270 73z"/>
<path d="M247 3690 c-131 -37 -241 -71 -245 -75 -4 -4 2 -5 13 -1 11 3 123 35
249 70 200 57 264 78 230 75 -5 0 -116 -31 -247 -69z"/>
<path d="M4551 3576 c8 -8 202 -76 206 -72 2 2 -42 20 -97 40 -99 35 -118 41
-109 32z"/>
<path d="M808 3513 c7 -3 16 -2 19 1 4 3 -2 6 -13 5 -11 0 -14 -3 -6 -6z"/>
<path d="M4810 3482 c8 -5 26 -13 40 -16 17 -5 20 -4 10 2 -8 5 -26 13 -40 16
-17 5 -20 4 -10 -2z"/>
<path d="M4715 3297 c-3 -7 -4 -93 -3 -192 l3 -179 120 -32 c66 -17 132 -34
147 -37 l27 -7 3 185 3 185 -120 39 c-160 51 -174 54 -180 38z m276 -105 c12
-13 -3 -303 -15 -299 -6 2 -64 19 -128 37 l-118 32 0 158 0 157 128 -39 c70
-21 130 -42 133 -46z m-214 -258 c-3 -3 -12 -4 -19 -1 -8 3 -5 6 6 6 11 1 17
-2 13 -5z m70 -20 c-3 -3 -12 -4 -19 -1 -8 3 -5 6 6 6 11 1 17 -2 13 -5z m70
-20 c-3 -3 -12 -4 -19 -1 -8 3 -5 6 6 6 11 1 17 -2 13 -5z"/>
<path d="M415 3213 c-11 -2 -107 -20 -213 -41 -107 -20 -189 -38 -184 -40 12
-4 443 76 451 83 5 6 -25 5 -54 -2z"/>
<path d="M4148 1363 c-45 -3 -56 -7 -51 -18 4 -11 24 -15 72 -16 l66 -2 -70
-11 c-59 -9 -70 -14 -67 -28 2 -12 13 -18 30 -19 15 0 36 -4 47 -9 15 -6 6 -9
-33 -9 -48 -1 -52 -3 -43 -20 6 -10 7 -22 3 -26 -4 -4 4 -4 18 -1 19 6 21 5
10 -3 -8 -6 -25 -11 -37 -11 -26 0 -31 -15 -7 -24 9 -3 52 -6 97 -6 72 0 79 1
61 14 -11 8 -32 12 -49 10 l-30 -5 31 14 c34 16 40 30 49 120 6 55 5 57 -17
55 -13 -1 -49 -3 -80 -5z"/>
<path d="M4905 1140 c-104 -22 -368 -73 -585 -115 -431 -84 -1058 -209 -1240
-248 -145 -31 -219 -39 -295 -29 l-60 8 80 7 c97 9 566 103 525 106 -8 1 -87
-14 -175 -33 -285 -61 -363 -70 -565 -70 -163 1 -218 6 -464 43 -319 47 -389
49 -539 17 -88 -18 -119 -21 -175 -14 -358 46 -975 133 -1263 178 -156 25
-151 25 -147 -2 3 -22 13 -24 153 -45 1480 -219 2213 -310 2402 -299 126 7
474 66 863 146 388 80 1683 340 1692 340 5 0 8 11 8 25 0 14 -6 25 -12 24 -7
-1 -98 -18 -203 -39z m-2810 -340 l270 -38 -103 -1 c-112 -1 -357 13 -577 33
l-140 12 80 16 c118 23 172 21 470 -22z"/>
<path d="M4240 1130 c-41 -6 -42 -7 -10 -8 19 0 58 3 85 8 47 7 48 7 10 7 -22
0 -60 -3 -85 -7z"/>
<path d="M4128 1113 c12 -2 32 -2 45 0 12 2 2 4 -23 4 -25 0 -35 -2 -22 -4z"/>
<path d="M743 1103 c15 -2 39 -2 55 0 15 2 2 4 -28 4 -30 0 -43 -2 -27 -4z"/>
<path d="M4038 1103 c12 -2 32 -2 45 0 12 2 2 4 -23 4 -25 0 -35 -2 -22 -4z"/>
<path d="M20 1080 c14 -4 41 -8 60 -8 l35 0 -40 9 c-22 4 -49 8 -60 7 -16 0
-15 -2 5 -8z"/>
<path d="M133 1063 c9 -2 23 -2 30 0 6 3 -1 5 -18 5 -16 0 -22 -2 -12 -5z"/>
<path d="M1288 1063 c6 -2 18 -2 25 0 6 3 1 5 -13 5 -14 0 -19 -2 -12 -5z"/>
<path d="M1213 1053 c9 -2 25 -2 35 0 9 3 1 5 -18 5 -19 0 -27 -2 -17 -5z"/>
<path d="M1858 1053 c6 -2 18 -2 25 0 6 3 1 5 -13 5 -14 0 -19 -2 -12 -5z"/>
<path d="M3198 1053 c6 -2 18 -2 25 0 6 3 1 5 -13 5 -14 0 -19 -2 -12 -5z"/>
<path d="M1045 1034 c-113 -17 -138 -25 -60 -17 81 7 217 30 180 31 -16 0 -70
-6 -120 -14z"/>
<path d="M1793 1043 c9 -2 23 -2 30 0 6 3 -1 5 -18 5 -16 0 -22 -2 -12 -5z"/>
<path d="M1975 1038 c-10 -26 1 -35 53 -47 203 -43 1008 -36 1129 10 13 5 23
15 23 23 0 12 -6 13 -30 6 -75 -22 -362 -32 -703 -27 -358 6 -442 13 -457 38
-7 11 -10 10 -15 -3z"/>
<path d="M3263 1043 c9 -2 23 -2 30 0 6 3 -1 5 -18 5 -16 0 -22 -2 -12 -5z"/>
<path d="M1680 1030 c-27 -6 -29 -8 -10 -8 14 -1 43 3 65 7 33 7 35 9 10 9
-16 -1 -46 -4 -65 -8z"/>
<path d="M3323 1033 c9 -2 23 -2 30 0 6 3 -1 5 -18 5 -16 0 -22 -2 -12 -5z"/>
<path d="M3383 1023 c9 -2 23 -2 30 0 6 3 -1 5 -18 5 -16 0 -22 -2 -12 -5z"/>
<path d="M1603 1013 c9 -2 23 -2 30 0 6 3 -1 5 -18 5 -16 0 -22 -2 -12 -5z"/>
<path d="M3443 1013 c9 -2 23 -2 30 0 6 3 -1 5 -18 5 -16 0 -22 -2 -12 -5z"/>
<path d="M775 992 c-49 -9 -81 -18 -70 -19 11 -2 65 6 120 16 55 11 87 19 70
19 -16 0 -70 -8 -120 -16z"/>
<path d="M1500 1000 c-34 -7 -34 -7 -5 -8 17 0 44 4 60 8 27 7 27 8 5 8 -14
-1 -41 -4 -60 -8z"/>
<path d="M3518 1003 c7 -3 16 -2 19 1 4 3 -2 6 -13 5 -11 0 -14 -3 -6 -6z"/>
<path d="M543 983 c9 -2 23 -2 30 0 6 3 -1 5 -18 5 -16 0 -22 -2 -12 -5z"/>
<path d="M1423 983 c9 -2 23 -2 30 0 6 3 -1 5 -18 5 -16 0 -22 -2 -12 -5z"/>
<path d="M618 973 c12 -2 32 -2 45 0 12 2 2 4 -23 4 -25 0 -35 -2 -22 -4z"/>
<path d="M1353 973 c9 -2 23 -2 30 0 6 3 -1 5 -18 5 -16 0 -22 -2 -12 -5z"/>
<path d="M1288 963 c6 -2 18 -2 25 0 6 3 1 5 -13 5 -14 0 -19 -2 -12 -5z"/>
<path d="M38 923 c6 -2 18 -2 25 0 6 3 1 5 -13 5 -14 0 -19 -2 -12 -5z"/>
<path d="M103 913 c9 -2 23 -2 30 0 6 3 -1 5 -18 5 -16 0 -22 -2 -12 -5z"/>
<path d="M163 903 c9 -2 23 -2 30 0 6 3 -1 5 -18 5 -16 0 -22 -2 -12 -5z"/>
<path d="M223 893 c9 -2 23 -2 30 0 6 3 -1 5 -18 5 -16 0 -22 -2 -12 -5z"/>
<path d="M3448 893 c6 -2 18 -2 25 0 6 3 1 5 -13 5 -14 0 -19 -2 -12 -5z"/>
<path d="M288 883 c6 -2 18 -2 25 0 6 3 1 5 -13 5 -14 0 -19 -2 -12 -5z"/>
<path d="M3408 883 c7 -3 16 -2 19 1 4 3 -2 6 -13 5 -11 0 -14 -3 -6 -6z"/>
<path d="M353 873 c9 -2 23 -2 30 0 6 3 -1 5 -18 5 -16 0 -22 -2 -12 -5z"/>
<path d="M3358 873 c6 -2 18 -2 25 0 6 3 1 5 -13 5 -14 0 -19 -2 -12 -5z"/>
<path d="M413 863 c9 -2 25 -2 35 0 9 3 1 5 -18 5 -19 0 -27 -2 -17 -5z"/>
<path d="M483 853 c9 -2 23 -2 30 0 6 3 -1 5 -18 5 -16 0 -22 -2 -12 -5z"/>
<path d="M553 843 c9 -2 23 -2 30 0 6 3 -1 5 -18 5 -16 0 -22 -2 -12 -5z"/>
<path d="M613 833 c9 -2 23 -2 30 0 6 3 -1 5 -18 5 -16 0 -22 -2 -12 -5z"/>
<path d="M673 823 c9 -2 25 -2 35 0 9 3 1 5 -18 5 -19 0 -27 -2 -17 -5z"/>
<path d="M765 809 c22 -4 51 -8 65 -7 16 0 11 3 -15 9 -22 4 -51 8 -65 7 -16
0 -11 -3 15 -9z"/>
<path d="M873 793 c9 -2 23 -2 30 0 6 3 -1 5 -18 5 -16 0 -22 -2 -12 -5z"/>
<path d="M933 783 c9 -2 23 -2 30 0 6 3 -1 5 -18 5 -16 0 -22 -2 -12 -5z"/>
<path d="M993 773 c9 -2 23 -2 30 0 6 3 -1 5 -18 5 -16 0 -22 -2 -12 -5z"/>
<path d="M1053 763 c9 -2 23 -2 30 0 6 3 -1 5 -18 5 -16 0 -22 -2 -12 -5z"/>
<path d="M1113 753 c9 -2 23 -2 30 0 6 3 -1 5 -18 5 -16 0 -22 -2 -12 -5z"/>
<path d="M1183 743 c9 -2 23 -2 30 0 6 3 -1 5 -18 5 -16 0 -22 -2 -12 -5z"/>
<path d="M1243 733 c9 -2 25 -2 35 0 9 3 1 5 -18 5 -19 0 -27 -2 -17 -5z"/>
<path d="M1313 723 c9 -2 23 -2 30 0 6 3 -1 5 -18 5 -16 0 -22 -2 -12 -5z"/>
<path d="M1383 713 c9 -2 23 -2 30 0 6 3 -1 5 -18 5 -16 0 -22 -2 -12 -5z"/>
<path d="M1443 703 c9 -2 23 -2 30 0 6 3 -1 5 -18 5 -16 0 -22 -2 -12 -5z"/>
<path d="M1503 693 c9 -2 25 -2 35 0 9 3 1 5 -18 5 -19 0 -27 -2 -17 -5z"/>
<path d="M1573 683 c9 -2 23 -2 30 0 6 3 -1 5 -18 5 -16 0 -22 -2 -12 -5z"/>
<path d="M3028 683 c7 -3 16 -2 19 1 4 3 -2 6 -13 5 -11 0 -14 -3 -6 -6z"/>
<path d="M1643 673 c9 -2 23 -2 30 0 6 3 -1 5 -18 5 -16 0 -22 -2 -12 -5z"/>
<path d="M2978 673 c7 -3 16 -2 19 1 4 3 -2 6 -13 5 -11 0 -14 -3 -6 -6z"/>
<path d="M1713 663 c9 -2 23 -2 30 0 6 3 -1 5 -18 5 -16 0 -22 -2 -12 -5z"/>
<path d="M2928 663 c7 -3 16 -2 19 1 4 3 -2 6 -13 5 -11 0 -14 -3 -6 -6z"/>
<path d="M1805 649 c22 -4 54 -8 70 -7 22 0 19 3 -15 9 -60 10 -108 9 -55 -2z"/>
<path d="M2878 653 c7 -3 16 -2 19 1 4 3 -2 6 -13 5 -11 0 -14 -3 -6 -6z"/>
<path d="M2828 643 c6 -2 18 -2 25 0 6 3 1 5 -13 5 -14 0 -19 -2 -12 -5z"/>
<path d="M1923 633 c9 -2 23 -2 30 0 6 3 -1 5 -18 5 -16 0 -22 -2 -12 -5z"/>
<path d="M2778 633 c6 -2 18 -2 25 0 6 3 1 5 -13 5 -14 0 -19 -2 -12 -5z"/>
<path d="M1983 623 c9 -2 25 -2 35 0 9 3 1 5 -18 5 -19 0 -27 -2 -17 -5z"/>
<path d="M2728 623 c7 -3 16 -2 19 1 4 3 -2 6 -13 5 -11 0 -14 -3 -6 -6z"/>
<path d="M2053 613 c9 -2 25 -2 35 0 9 3 1 5 -18 5 -19 0 -27 -2 -17 -5z"/>
</g>
</svg>